<svg width="200" height="200" viewBox="0 0 200 200" fill="none" xmlns="http://www.w3.org/2000/svg">
<circle cx="100" cy="100" r="100" fill="#C6913F"/>
<path fill-rule="evenodd" clip-rule="evenodd" d="M70 62.5C70 54.5435 73.1607 46.9129 78.7868 41.2868C84.4129 35.6607 92.0435 32.5 100 32.5C107.956 32.5 115.587 35.6607 121.213 41.2868C126.839 46.9129 130 54.5435 130 62.5C130 70.4565 126.839 78.0871 121.213 83.7132C115.587 89.3393 107.956 92.5 100 92.5C92.0435 92.5 84.4129 89.3393 78.7868 83.7132C73.1607 78.0871 70 70.4565 70 62.5ZM70 107.5C60.0544 107.5 50.5161 111.451 43.4835 118.483C36.4509 125.516 32.5 135.054 32.5 145C32.5 150.967 34.8705 156.69 39.0901 160.91C43.3097 165.129 49.0326 167.5 55 167.5H145C150.967 167.5 156.69 165.129 160.91 160.91C165.129 156.69 167.5 150.967 167.5 145C167.5 135.054 163.549 125.516 156.517 118.483C149.484 111.451 139.946 107.5 130 107.5H70Z" fill="black"/>
</svg>
